<svg width="80" height="16" viewBox="0 0 80 16" fill="none" xmlns="http://www.w3.org/2000/svg">
<path d="M2.56348 8.08496C2.56348 10.359 3.57292 11.4961 5.5918 11.4961C7.56055 11.4961 8.54492 10.359 8.54492 8.08496C8.54492 5.84733 7.56055 4.72852 5.5918 4.72852C3.57292 4.72852 2.56348 5.84733 2.56348 8.08496ZM0.683594 8.12598C0.683594 4.81283 2.31966 3.15625 5.5918 3.15625C8.8138 3.15625 10.4248 4.81283 10.4248 8.12598C10.4248 11.4209 8.8138 13.0684 5.5918 13.0684C2.46549 13.0684 0.829427 11.4209 0.683594 8.12598ZM12.1406 13V3.22461H16.5156C18.5117 3.22461 19.5098 4.1429 19.5098 5.97949C19.5098 7.97103 18.1449 9.17643 15.415 9.5957L15.1553 7.98242C16.7959 7.6862 17.6162 7.03678 17.6162 6.03418C17.6162 5.22298 17.2106 4.81738 16.3994 4.81738H13.9521V13H12.1406ZM23.707 8.1123L19.8584 3.22461H22.1484L24.8486 6.79297L27.5488 3.22461H29.8389L25.9971 8.1123L29.8389 13H27.5488L24.8486 9.43164L22.1484 13H19.8584L23.707 8.1123Z" fill="#8A4FFF"/>
<path d="M37.704 11.08C37.48 11.08 37.272 11.04 37.08 10.96C36.888 10.88 36.7227 10.768 36.584 10.624C36.4453 10.48 36.3413 10.3173 36.272 10.136L36.36 10.024L36.304 11H35.744V5.16H36.384V7.904L36.304 7.784C36.4107 7.53333 36.5893 7.328 36.84 7.168C37.096 7.00267 37.3867 6.92 37.712 6.92C38.0427 6.92 38.3467 7.00267 38.624 7.168C38.9013 7.33333 39.1227 7.57067 39.288 7.88C39.4533 8.18933 39.536 8.56267 39.536 9C39.536 9.432 39.4507 9.80533 39.28 10.12C39.1147 10.4293 38.8933 10.6667 38.616 10.832C38.3387 10.9973 38.0347 11.08 37.704 11.08ZM37.64 10.52C38.0347 10.52 38.3413 10.3813 38.56 10.104C38.784 9.82667 38.896 9.45867 38.896 9C38.896 8.54133 38.7867 8.17333 38.568 7.896C38.3493 7.61867 38.0427 7.48 37.648 7.48C37.3973 7.48 37.176 7.544 36.984 7.672C36.7973 7.8 36.6507 7.97867 36.544 8.208C36.4373 8.43733 36.384 8.70667 36.384 9.016C36.384 9.32 36.4347 9.58667 36.536 9.816C36.6427 10.04 36.7893 10.2133 36.976 10.336C37.168 10.4587 37.3893 10.52 37.64 10.52ZM40.7596 11V7H41.2796L41.3676 7.656C41.4796 7.41067 41.6423 7.22667 41.8556 7.104C42.0743 6.98133 42.3383 6.92 42.6476 6.92C42.717 6.92 42.7916 6.92533 42.8716 6.936C42.957 6.94667 43.029 6.968 43.0876 7L42.9756 7.584C42.917 7.56267 42.853 7.54667 42.7836 7.536C42.7143 7.52533 42.6156 7.52 42.4876 7.52C42.3223 7.52 42.1543 7.568 41.9836 7.664C41.8183 7.76 41.6796 7.90667 41.5676 8.104C41.4556 8.296 41.3996 8.54133 41.3996 8.84V11H40.7596ZM45.5563 6.92C45.9349 6.92 46.2683 7.00267 46.5563 7.168C46.8496 7.33333 47.0789 7.57333 47.2443 7.888C47.4096 8.19733 47.4923 8.568 47.4923 9C47.4923 9.432 47.4096 9.80533 47.2443 10.12C47.0789 10.4293 46.8496 10.6667 46.5563 10.832C46.2683 10.9973 45.9349 11.08 45.5563 11.08C45.1829 11.08 44.8496 10.9973 44.5563 10.832C44.2629 10.6667 44.0336 10.4293 43.8683 10.12C43.7029 9.80533 43.6203 9.432 43.6203 9C43.6203 8.568 43.7029 8.19733 43.8683 7.888C44.0336 7.57333 44.2629 7.33333 44.5563 7.168C44.8496 7.00267 45.1829 6.92 45.5563 6.92ZM45.5563 7.472C45.2843 7.472 45.0523 7.53333 44.8603 7.656C44.6683 7.77867 44.5189 7.95467 44.4123 8.184C44.3109 8.408 44.2603 8.68 44.2603 9C44.2603 9.31467 44.3109 9.58667 44.4123 9.816C44.5189 10.0453 44.6683 10.2213 44.8603 10.344C45.0523 10.4667 45.2843 10.528 45.5563 10.528C45.8283 10.528 46.0603 10.4667 46.2523 10.344C46.4443 10.2213 46.5909 10.0453 46.6923 9.816C46.7989 9.58667 46.8523 9.31467 46.8523 9C46.8523 8.68 46.7989 8.408 46.6923 8.184C46.5909 7.95467 46.4443 7.77867 46.2523 7.656C46.0603 7.53333 45.8283 7.472 45.5563 7.472ZM53.5881 7H54.3001L52.9081 11H52.2681L51.1401 7.816L50.0761 11H49.4361L48.0441 7H48.7561L49.7641 10.256L50.8521 7H51.4921L52.5801 10.256L53.5881 7ZM56.6137 11.08C56.2244 11.08 55.8644 10.9973 55.5337 10.832C55.2084 10.6667 54.9577 10.432 54.7817 10.128L55.3257 9.736C55.443 9.98133 55.6137 10.1733 55.8377 10.312C56.067 10.4507 56.3417 10.52 56.6617 10.52C56.9444 10.52 57.1657 10.4667 57.3257 10.36C57.4857 10.248 57.5657 10.104 57.5657 9.928C57.5657 9.816 57.5284 9.71467 57.4537 9.624C57.3844 9.528 57.2484 9.45867 57.0457 9.416L56.0857 9.216C55.6964 9.136 55.4164 9.00267 55.2457 8.816C55.0804 8.62933 54.9977 8.39733 54.9977 8.12C54.9977 7.90133 55.059 7.70133 55.1817 7.52C55.3097 7.33867 55.4884 7.19467 55.7177 7.088C55.9524 6.976 56.227 6.92 56.5417 6.92C56.9364 6.92 57.2697 6.99733 57.5417 7.152C57.8137 7.30667 58.0164 7.52533 58.1497 7.808L57.6137 8.16C57.523 7.92533 57.3764 7.75467 57.1737 7.648C56.971 7.536 56.7604 7.48 56.5417 7.48C56.3497 7.48 56.1844 7.50667 56.0457 7.56C55.9124 7.61333 55.8084 7.688 55.7337 7.784C55.6644 7.87467 55.6297 7.97867 55.6297 8.096C55.6297 8.21333 55.6697 8.32267 55.7497 8.424C55.8297 8.52 55.979 8.58933 56.1977 8.632L57.1977 8.84C57.571 8.91467 57.8324 9.03733 57.9817 9.208C58.131 9.37867 58.2057 9.58667 58.2057 9.832C58.2057 10.0827 58.139 10.304 58.0057 10.496C57.8724 10.6827 57.6857 10.8267 57.4457 10.928C57.2057 11.0293 56.9284 11.08 56.6137 11.08ZM61.0644 11.08C60.6858 11.08 60.3471 10.9973 60.0484 10.832C59.7551 10.6667 59.5258 10.4293 59.3604 10.12C59.1951 9.80533 59.1124 9.432 59.1124 9C59.1124 8.568 59.1951 8.19733 59.3604 7.888C59.5258 7.57333 59.7524 7.33333 60.0404 7.168C60.3284 7.00267 60.6564 6.92 61.0244 6.92C61.3978 6.92 61.7151 7 61.9764 7.16C62.2431 7.32 62.4458 7.53867 62.5844 7.816C62.7231 8.088 62.7924 8.39467 62.7924 8.736C62.7924 8.82667 62.7898 8.90933 62.7844 8.984C62.7791 9.05867 62.7711 9.12533 62.7604 9.184H59.5284V8.616H62.4804L62.1524 8.68C62.1524 8.296 62.0458 8 61.8324 7.792C61.6244 7.584 61.3498 7.48 61.0084 7.48C60.7471 7.48 60.5204 7.54133 60.3284 7.664C60.1418 7.78133 59.9951 7.95467 59.8884 8.184C59.7871 8.408 59.7364 8.68 59.7364 9C59.7364 9.31467 59.7898 9.58667 59.8964 9.816C60.0031 10.0453 60.1524 10.2213 60.3444 10.344C60.5418 10.4613 60.7764 10.52 61.0484 10.52C61.3418 10.52 61.5791 10.464 61.7604 10.352C61.9471 10.24 62.0964 10.088 62.2084 9.896L62.7124 10.192C62.6111 10.3733 62.4804 10.5307 62.3204 10.664C62.1658 10.7973 61.9818 10.9013 61.7684 10.976C61.5604 11.0453 61.3258 11.08 61.0644 11.08ZM64.0096 11V7H64.5296L64.6176 7.656C64.7296 7.41067 64.8923 7.22667 65.1056 7.104C65.3243 6.98133 65.5883 6.92 65.8976 6.92C65.967 6.92 66.0416 6.92533 66.1216 6.936C66.207 6.94667 66.279 6.968 66.3376 7L66.2256 7.584C66.167 7.56267 66.103 7.54667 66.0336 7.536C65.9643 7.52533 65.8656 7.52 65.7376 7.52C65.5723 7.52 65.4043 7.568 65.2336 7.664C65.0683 7.76 64.9296 7.90667 64.8176 8.104C64.7056 8.296 64.6496 8.54133 64.6496 8.84V11H64.0096ZM66.9546 10.04C67.1093 10.04 67.2346 10.088 67.3306 10.184C67.4266 10.28 67.4746 10.4053 67.4746 10.56C67.4746 10.7147 67.4266 10.84 67.3306 10.936C67.2346 11.032 67.1093 11.08 66.9546 11.08C66.8 11.08 66.6746 11.032 66.5786 10.936C66.4826 10.84 66.4346 10.7147 66.4346 10.56C66.4346 10.4053 66.4826 10.28 66.5786 10.184C66.6746 10.088 66.8 10.04 66.9546 10.04ZM70.2594 6.92C70.638 6.92 70.9714 7.00267 71.2594 7.168C71.5527 7.33333 71.782 7.57333 71.9474 7.888C72.1127 8.19733 72.1954 8.568 72.1954 9C72.1954 9.432 72.1127 9.80533 71.9474 10.12C71.782 10.4293 71.5527 10.6667 71.2594 10.832C70.9714 10.9973 70.638 11.08 70.2594 11.08C69.886 11.08 69.5527 10.9973 69.2594 10.832C68.966 10.6667 68.7367 10.4293 68.5714 10.12C68.406 9.80533 68.3234 9.432 68.3234 9C68.3234 8.568 68.406 8.19733 68.5714 7.888C68.7367 7.57333 68.966 7.33333 69.2594 7.168C69.5527 7.00267 69.886 6.92 70.2594 6.92ZM70.2594 7.472C69.9874 7.472 69.7554 7.53333 69.5634 7.656C69.3714 7.77867 69.222 7.95467 69.1154 8.184C69.014 8.408 68.9634 8.68 68.9634 9C68.9634 9.31467 69.014 9.58667 69.1154 9.816C69.222 10.0453 69.3714 10.2213 69.5634 10.344C69.7554 10.4667 69.9874 10.528 70.2594 10.528C70.5314 10.528 70.7634 10.4667 70.9554 10.344C71.1474 10.2213 71.294 10.0453 71.3954 9.816C71.502 9.58667 71.5554 9.31467 71.5554 9C71.5554 8.68 71.502 8.408 71.3954 8.184C71.294 7.95467 71.1474 7.77867 70.9554 7.656C70.7634 7.53333 70.5314 7.472 70.2594 7.472ZM73.4003 11V7H73.9203L74.0083 7.656C74.1203 7.41067 74.2829 7.22667 74.4963 7.104C74.7149 6.98133 74.9789 6.92 75.2883 6.92C75.3576 6.92 75.4323 6.92533 75.5123 6.936C75.5976 6.94667 75.6696 6.968 75.7283 7L75.6163 7.584C75.5576 7.56267 75.4936 7.54667 75.4243 7.536C75.3549 7.52533 75.2563 7.52 75.1283 7.52C74.9629 7.52 74.7949 7.568 74.6243 7.664C74.4589 7.76 74.3203 7.90667 74.2083 8.104C74.0963 8.296 74.0403 8.54133 74.0403 8.84V11H73.4003ZM79.8307 6.264L79.9748 6.832C79.9694 6.832 79.9614 6.832 79.9508 6.832C79.9401 6.832 79.9294 6.832 79.9188 6.832C79.6574 6.832 79.4548 6.88533 79.3108 6.992C79.1721 7.09333 79.1028 7.25867 79.1028 7.488L78.7108 7.288C78.7108 7.08 78.7588 6.89867 78.8548 6.744C78.9508 6.58933 79.0814 6.472 79.2468 6.392C79.4121 6.30667 79.5934 6.264 79.7908 6.264C79.7961 6.264 79.8014 6.264 79.8068 6.264C79.8174 6.264 79.8254 6.264 79.8307 6.264ZM78.6148 10.488C78.9934 10.488 79.2894 10.576 79.5028 10.752C79.7161 10.9227 79.8228 11.152 79.8228 11.44C79.8228 11.7013 79.7348 11.928 79.5588 12.12C79.3881 12.312 79.1561 12.4587 78.8628 12.56C78.5748 12.6667 78.2494 12.72 77.8868 12.72C77.2574 12.72 76.7854 12.6133 76.4708 12.4C76.1614 12.1867 76.0068 11.9307 76.0068 11.632C76.0068 11.4187 76.0761 11.2267 76.2148 11.056C76.3588 10.8907 76.5988 10.7973 76.9348 10.776L76.8788 10.896C76.6974 10.848 76.5428 10.768 76.4148 10.656C76.2921 10.5387 76.2308 10.3707 76.2308 10.152C76.2308 9.93333 76.3108 9.74667 76.4708 9.592C76.6361 9.432 76.8788 9.33333 77.1988 9.296L77.6228 9.512H77.5428C77.2814 9.53867 77.0948 9.60533 76.9828 9.712C76.8761 9.81333 76.8228 9.92533 76.8228 10.048C76.8228 10.1973 76.8761 10.3093 76.9828 10.384C77.0948 10.4533 77.2494 10.488 77.4468 10.488H78.6148ZM77.8788 12.184C78.1881 12.184 78.4414 12.152 78.6388 12.088C78.8414 12.024 78.9908 11.9413 79.0868 11.84C79.1828 11.7387 79.2308 11.6293 79.2308 11.512C79.2308 11.368 79.1721 11.2533 79.0548 11.168C78.9428 11.0827 78.7374 11.04 78.4388 11.04H77.2068C77.0361 11.04 76.8921 11.0827 76.7747 11.168C76.6574 11.2587 76.5988 11.3813 76.5988 11.536C76.5988 11.7333 76.7108 11.8907 76.9348 12.008C77.1641 12.1253 77.4788 12.184 77.8788 12.184ZM77.8228 6.92C78.1428 6.92 78.4254 6.97867 78.6708 7.096C78.9214 7.208 79.1161 7.36533 79.2548 7.568C79.3934 7.77067 79.4628 8.00533 79.4628 8.272C79.4628 8.53333 79.3934 8.768 79.2548 8.976C79.1161 9.17867 78.9214 9.33867 78.6708 9.456C78.4254 9.568 78.1428 9.624 77.8228 9.624C77.2948 9.624 76.8894 9.49867 76.6068 9.248C76.3241 8.992 76.1828 8.66667 76.1828 8.272C76.1828 8.00533 76.2521 7.77067 76.3908 7.568C76.5348 7.36533 76.7294 7.208 76.9748 7.096C77.2201 6.97867 77.5028 6.92 77.8228 6.92ZM77.8228 7.44C77.5454 7.44 77.3134 7.51733 77.1268 7.672C76.9401 7.82133 76.8468 8.02133 76.8468 8.272C76.8468 8.51733 76.9401 8.71733 77.1268 8.872C77.3134 9.02667 77.5454 9.104 77.8228 9.104C78.1001 9.104 78.3321 9.02667 78.5188 8.872C78.7054 8.71733 78.7988 8.51733 78.7988 8.272C78.7988 8.02133 78.7054 7.82133 78.5188 7.672C78.3321 7.51733 78.1001 7.44 77.8228 7.44Z" fill="#8A4FFF"/>
</svg>
